G04 #@! TF.FileFunction,Copper,L2,Bot,Signal*
%FSLAX46Y46*%
G04 Gerber Fmt 4.6, Leading zero omitted, Abs format (unit mm)*
G04 Created by KiCad (PCBNEW 4.0.0-stable) date 12/8/2015 12:10:27 PM*
%MOMM*%
G01*
G04 APERTURE LIST*
%ADD10C,0.100000*%
%ADD11O,1.200000X1.500000*%
%ADD12C,4.300000*%
%ADD13C,0.254000*%
G04 APERTURE END LIST*
D10*
D11*
X1900000Y0D03*
X3500000Y0D03*
X5100000Y0D03*
D12*
X3500000Y-13000000D03*
D13*
G36*
X1026723Y-1050411D02*
X1427386Y-1318125D01*
X1900000Y-1412134D01*
X2372614Y-1318125D01*
X2713580Y-1090299D01*
X2754783Y-1136571D01*
X3182391Y-1343462D01*
X3373000Y-1218731D01*
X3373000Y-710000D01*
X3627000Y-710000D01*
X3627000Y-1218731D01*
X3817609Y-1343462D01*
X4245217Y-1136571D01*
X4286420Y-1090299D01*
X4627386Y-1318125D01*
X5100000Y-1412134D01*
X5572614Y-1318125D01*
X5973277Y-1050411D01*
X6200732Y-710000D01*
X6290000Y-710000D01*
X6290000Y-15290000D01*
X5113896Y-15290000D01*
X5303689Y-14983294D01*
X3500000Y-13179605D01*
X1696311Y-14983294D01*
X1886104Y-15290000D01*
X710000Y-15290000D01*
X710000Y-12461272D01*
X712012Y-12461272D01*
X718072Y-13569197D01*
X1130397Y-14564637D01*
X1516706Y-14803689D01*
X3320395Y-13000000D01*
X3679605Y-13000000D01*
X5483294Y-14803689D01*
X5869603Y-14564637D01*
X6287988Y-13538728D01*
X6281928Y-12430803D01*
X5869603Y-11435363D01*
X5483294Y-11196311D01*
X3679605Y-13000000D01*
X3320395Y-13000000D01*
X1516706Y-11196311D01*
X1130397Y-11435363D01*
X712012Y-12461272D01*
X710000Y-12461272D01*
X710000Y-11016706D01*
X1696311Y-11016706D01*
X3500000Y-12820395D01*
X5303689Y-11016706D01*
X5064637Y-10630397D01*
X4038728Y-10212012D01*
X2930803Y-10218072D01*
X1935363Y-10630397D01*
X1696311Y-11016706D01*
X710000Y-11016706D01*
X710000Y-710000D01*
X799268Y-710000D01*
X1026723Y-1050411D01*
X1026723Y-1050411D01*
G37*
X1026723Y-1050411D02*
X1427386Y-1318125D01*
X1900000Y-1412134D01*
X2372614Y-1318125D01*
X2713580Y-1090299D01*
X2754783Y-1136571D01*
X3182391Y-1343462D01*
X3373000Y-1218731D01*
X3373000Y-710000D01*
X3627000Y-710000D01*
X3627000Y-1218731D01*
X3817609Y-1343462D01*
X4245217Y-1136571D01*
X4286420Y-1090299D01*
X4627386Y-1318125D01*
X5100000Y-1412134D01*
X5572614Y-1318125D01*
X5973277Y-1050411D01*
X6200732Y-710000D01*
X6290000Y-710000D01*
X6290000Y-15290000D01*
X5113896Y-15290000D01*
X5303689Y-14983294D01*
X3500000Y-13179605D01*
X1696311Y-14983294D01*
X1886104Y-15290000D01*
X710000Y-15290000D01*
X710000Y-12461272D01*
X712012Y-12461272D01*
X718072Y-13569197D01*
X1130397Y-14564637D01*
X1516706Y-14803689D01*
X3320395Y-13000000D01*
X3679605Y-13000000D01*
X5483294Y-14803689D01*
X5869603Y-14564637D01*
X6287988Y-13538728D01*
X6281928Y-12430803D01*
X5869603Y-11435363D01*
X5483294Y-11196311D01*
X3679605Y-13000000D01*
X3320395Y-13000000D01*
X1516706Y-11196311D01*
X1130397Y-11435363D01*
X712012Y-12461272D01*
X710000Y-12461272D01*
X710000Y-11016706D01*
X1696311Y-11016706D01*
X3500000Y-12820395D01*
X5303689Y-11016706D01*
X5064637Y-10630397D01*
X4038728Y-10212012D01*
X2930803Y-10218072D01*
X1935363Y-10630397D01*
X1696311Y-11016706D01*
X710000Y-11016706D01*
X710000Y-710000D01*
X799268Y-710000D01*
X1026723Y-1050411D01*
M02*
