G04 #@! TF.FileFunction,Copper,L1,Top,Signal*
%FSLAX46Y46*%
G04 Gerber Fmt 4.6, Leading zero omitted, Abs format (unit mm)*
G04 Created by KiCad (PCBNEW 4.0.0-stable) date 12/8/2015 12:10:27 PM*
%MOMM*%
G01*
G04 APERTURE LIST*
%ADD10C,0.100000*%
%ADD11O,1.200000X1.500000*%
%ADD12C,4.300000*%
%ADD13R,0.800000X0.750000*%
%ADD14R,0.900000X0.500000*%
%ADD15R,0.800000X1.000000*%
%ADD16C,0.400000*%
%ADD17C,0.254000*%
G04 APERTURE END LIST*
D10*
D11*
X1900000Y0D03*
X3500000Y0D03*
X5100000Y0D03*
D12*
X3500000Y-13000000D03*
D13*
X1950000Y-5100000D03*
X3450000Y-5100000D03*
D14*
X5400000Y-5750000D03*
X5400000Y-4250000D03*
D15*
X2550000Y-3700000D03*
X4450000Y-3700000D03*
X3500000Y-1300000D03*
D16*
X5400000Y-5750000D02*
X5150000Y-5750000D01*
X5150000Y-5750000D02*
X5000000Y-5900000D01*
X5000000Y-5900000D02*
X2200000Y-5900000D01*
X2200000Y-5900000D02*
X1950000Y-5650000D01*
X1950000Y-5650000D02*
X1950000Y-5100000D01*
X1950000Y-5100000D02*
X1950000Y-4300000D01*
X1950000Y-4300000D02*
X2550000Y-3700000D01*
X2550000Y-3700000D02*
X2550000Y-2950000D01*
X2550000Y-2950000D02*
X1900000Y-2300000D01*
X1900000Y-2300000D02*
X1900000Y0D01*
X3450000Y-5100000D02*
X4300000Y-5100000D01*
X4300000Y-5100000D02*
X4400000Y-5000000D01*
X4400000Y-5000000D02*
X6200000Y-5000000D01*
X6200000Y-5000000D02*
X6300000Y-5100000D01*
X6300000Y-5100000D02*
X6300000Y-6600000D01*
X6300000Y-6600000D02*
X5700000Y-7200000D01*
X5700000Y-7200000D02*
X4600000Y-7200000D01*
X4600000Y-7200000D02*
X3500000Y-8300000D01*
X3450000Y-5100000D02*
X3450000Y-1350000D01*
X3450000Y-1350000D02*
X3500000Y-1300000D01*
X3500000Y-13000000D02*
X3500000Y-8300000D01*
X3500000Y0D02*
X3500000Y-1300000D01*
X5400000Y-4250000D02*
X4650000Y-4250000D01*
X4650000Y-4250000D02*
X4450000Y-4050000D01*
X4450000Y-4050000D02*
X4450000Y-3700000D01*
X5100000Y0D02*
X5100000Y-2000000D01*
X5100000Y-2000000D02*
X4450000Y-2650000D01*
X4450000Y-2650000D02*
X4450000Y-3700000D01*
X4450000Y-3750000D02*
X4450000Y-3700000D01*
D17*
G36*
X1026723Y-1050411D02*
X1065000Y-1075987D01*
X1065000Y-2300000D01*
X1128561Y-2619541D01*
X1214768Y-2748559D01*
X1309566Y-2890434D01*
X1522191Y-3103059D01*
X1502560Y-3200000D01*
X1502560Y-3566572D01*
X1359566Y-3709566D01*
X1178561Y-3980459D01*
X1126330Y-4243040D01*
X1098559Y-4260910D01*
X953569Y-4473110D01*
X902560Y-4725000D01*
X902560Y-5475000D01*
X946838Y-5710317D01*
X1085910Y-5926441D01*
X1203404Y-6006721D01*
X1280725Y-6122440D01*
X1359566Y-6240434D01*
X1609566Y-6490434D01*
X1880459Y-6671439D01*
X2200000Y-6735000D01*
X5000000Y-6735000D01*
X5319541Y-6671439D01*
X5355458Y-6647440D01*
X5850000Y-6647440D01*
X6085317Y-6603162D01*
X6290000Y-6471452D01*
X6290000Y-15290000D01*
X710000Y-15290000D01*
X710000Y-710000D01*
X799268Y-710000D01*
X1026723Y-1050411D01*
X1026723Y-1050411D01*
G37*
X1026723Y-1050411D02*
X1065000Y-1075987D01*
X1065000Y-2300000D01*
X1128561Y-2619541D01*
X1214768Y-2748559D01*
X1309566Y-2890434D01*
X1522191Y-3103059D01*
X1502560Y-3200000D01*
X1502560Y-3566572D01*
X1359566Y-3709566D01*
X1178561Y-3980459D01*
X1126330Y-4243040D01*
X1098559Y-4260910D01*
X953569Y-4473110D01*
X902560Y-4725000D01*
X902560Y-5475000D01*
X946838Y-5710317D01*
X1085910Y-5926441D01*
X1203404Y-6006721D01*
X1280725Y-6122440D01*
X1359566Y-6240434D01*
X1609566Y-6490434D01*
X1880459Y-6671439D01*
X2200000Y-6735000D01*
X5000000Y-6735000D01*
X5319541Y-6671439D01*
X5355458Y-6647440D01*
X5850000Y-6647440D01*
X6085317Y-6603162D01*
X6290000Y-6471452D01*
X6290000Y-15290000D01*
X710000Y-15290000D01*
X710000Y-710000D01*
X799268Y-710000D01*
X1026723Y-1050411D01*
G36*
X4226723Y-1050411D02*
X4265000Y-1075987D01*
X4265000Y-1654132D01*
X3859566Y-2059566D01*
X3678561Y-2330459D01*
X3615000Y-2650000D01*
X3615000Y-2725331D01*
X3598559Y-2735910D01*
X3499367Y-2881083D01*
X3414090Y-2748559D01*
X3334053Y-2693872D01*
X3321439Y-2630459D01*
X3140434Y-2359566D01*
X2735000Y-1954132D01*
X2735000Y-1075987D01*
X2773277Y-1050411D01*
X3000732Y-710000D01*
X3999268Y-710000D01*
X4226723Y-1050411D01*
X4226723Y-1050411D01*
G37*
X4226723Y-1050411D02*
X4265000Y-1075987D01*
X4265000Y-1654132D01*
X3859566Y-2059566D01*
X3678561Y-2330459D01*
X3615000Y-2650000D01*
X3615000Y-2725331D01*
X3598559Y-2735910D01*
X3499367Y-2881083D01*
X3414090Y-2748559D01*
X3334053Y-2693872D01*
X3321439Y-2630459D01*
X3140434Y-2359566D01*
X2735000Y-1954132D01*
X2735000Y-1075987D01*
X2773277Y-1050411D01*
X3000732Y-710000D01*
X3999268Y-710000D01*
X4226723Y-1050411D01*
M02*
