G04 #@! TF.FileFunction,Soldermask,Top*
%FSLAX46Y46*%
G04 Gerber Fmt 4.6, Leading zero omitted, Abs format (unit mm)*
G04 Created by KiCad (PCBNEW 4.0.0-stable) date 2/23/2016 1:53:35 PM*
%MOMM*%
G01*
G04 APERTURE LIST*
%ADD10C,0.100000*%
%ADD11R,3.448000X2.051000*%
%ADD12R,7.100520X7.100520*%
%ADD13C,5.400000*%
%ADD14R,1.650000X1.400000*%
%ADD15R,1.400000X1.650000*%
%ADD16R,1.700000X1.700000*%
%ADD17C,1.700000*%
%ADD18R,2.400000X2.400000*%
%ADD19C,2.400000*%
%ADD20C,2.398980*%
%ADD21R,2.398980X2.398980*%
%ADD22R,2.100000X2.400000*%
%ADD23C,2.940000*%
%ADD24C,1.901140*%
%ADD25R,2.432000X2.432000*%
%ADD26O,2.432000X2.432000*%
%ADD27R,2.127200X2.432000*%
%ADD28O,2.127200X2.432000*%
%ADD29C,1.924000*%
%ADD30C,3.100020*%
%ADD31R,1.700000X1.100000*%
%ADD32R,1.100000X1.700000*%
%ADD33R,0.648920X1.700000*%
%ADD34R,0.651460X1.700000*%
%ADD35R,1.700000X0.648920*%
%ADD36R,1.700000X0.651460*%
%ADD37R,2.299920X1.499820*%
%ADD38O,1.400760X0.648920*%
%ADD39O,0.648920X1.400760*%
%ADD40R,3.400000X3.400000*%
%ADD41C,3.400000*%
%ADD42R,1.950000X1.000000*%
%ADD43R,1.000000X1.950000*%
%ADD44R,1.460000X1.050000*%
%ADD45R,0.850000X2.050000*%
%ADD46R,4.720000X3.400000*%
%ADD47R,1.200100X1.200100*%
%ADD48R,2.000000X1.400000*%
%ADD49R,4.057600X2.432000*%
%ADD50R,1.416000X2.432000*%
%ADD51R,1.100000X4.400000*%
%ADD52R,1.900000X2.700000*%
G04 APERTURE END LIST*
D10*
D11*
X81600000Y-41698760D03*
D12*
X88249720Y-44000000D03*
D11*
X81600000Y-46301240D03*
D13*
X88100000Y-44000000D03*
X73500000Y-3500000D03*
X3500000Y-3500000D03*
X3500000Y-46500000D03*
X73500000Y-46500000D03*
X96000000Y-46500000D03*
X96000000Y-3500000D03*
D14*
X17300000Y-22100000D03*
X17300000Y-24100000D03*
D15*
X33000000Y-38600000D03*
X31000000Y-38600000D03*
D14*
X35950000Y-35750000D03*
X35950000Y-37750000D03*
X38050000Y-36700000D03*
X38050000Y-34700000D03*
X15800000Y-22100000D03*
X15800000Y-24100000D03*
X14300000Y-22100000D03*
X14300000Y-24100000D03*
X22400000Y-16600000D03*
X22400000Y-14600000D03*
X28550000Y-26450000D03*
X28550000Y-28450000D03*
D15*
X29350000Y-17750000D03*
X27350000Y-17750000D03*
D14*
X37750000Y-18550000D03*
X37750000Y-16550000D03*
X35250000Y-29350000D03*
X35250000Y-31350000D03*
X39250000Y-18550000D03*
X39250000Y-16550000D03*
D15*
X85800000Y-22900000D03*
X87800000Y-22900000D03*
X11000000Y-27700000D03*
X9000000Y-27700000D03*
X85800000Y-24900000D03*
X87800000Y-24900000D03*
X90600000Y-30700000D03*
X88600000Y-30700000D03*
D14*
X22900000Y-37300000D03*
X22900000Y-35300000D03*
D15*
X85650000Y-34050000D03*
X87650000Y-34050000D03*
X20700000Y-33000000D03*
X22700000Y-33000000D03*
D16*
X85700000Y-5400000D03*
D17*
X80700000Y-5400000D03*
D15*
X11100000Y-35600000D03*
X9100000Y-35600000D03*
D14*
X92000000Y-28800000D03*
X92000000Y-26800000D03*
D16*
X94800000Y-37700000D03*
D17*
X94800000Y-32700000D03*
D15*
X35700000Y-41400000D03*
X37700000Y-41400000D03*
X69300000Y-21700000D03*
X71300000Y-21700000D03*
D14*
X58500000Y-18100000D03*
X58500000Y-20100000D03*
D15*
X58100000Y-21500000D03*
X56100000Y-21500000D03*
X61400000Y-22200000D03*
X59400000Y-22200000D03*
X60200000Y-10550000D03*
X58200000Y-10550000D03*
X59300000Y-27100000D03*
X57300000Y-27100000D03*
X71000000Y-28800000D03*
X69000000Y-28800000D03*
X69200000Y-27300000D03*
X71200000Y-27300000D03*
X65900000Y-26600000D03*
X67900000Y-26600000D03*
X67750000Y-38300000D03*
X69750000Y-38300000D03*
D18*
X2400000Y-38300000D03*
D19*
X2400000Y-35760000D03*
D18*
X2400000Y-30500000D03*
D19*
X2400000Y-27960000D03*
D20*
X25302540Y-45160000D03*
D21*
X25302540Y-35000000D03*
D20*
X94397460Y-11940000D03*
D21*
X94397460Y-22100000D03*
D22*
X90700000Y-4250000D03*
X90700000Y-8250000D03*
D23*
X84400640Y-16100000D03*
X89399360Y-16100000D03*
D24*
X39400000Y-38200000D03*
D25*
X22900000Y-29800000D03*
D26*
X20360000Y-29800000D03*
D27*
X12500000Y-2000000D03*
D28*
X15040000Y-2000000D03*
X17580000Y-2000000D03*
X20120000Y-2000000D03*
X22660000Y-2000000D03*
X25200000Y-2000000D03*
X27740000Y-2000000D03*
X30280000Y-2000000D03*
D29*
X8000000Y-17660000D03*
X8000000Y-20200000D03*
X6001020Y-20200000D03*
X6001020Y-17660000D03*
D30*
X3301000Y-12930520D03*
X3301000Y-24929480D03*
D27*
X30100000Y-14900000D03*
D28*
X27560000Y-14900000D03*
X25020000Y-14900000D03*
D31*
X18900000Y-24050000D03*
X18900000Y-22150000D03*
X2400000Y-41850000D03*
X2400000Y-39950000D03*
X2400000Y-34050000D03*
X2400000Y-32150000D03*
X29500000Y-43250000D03*
X29500000Y-45150000D03*
D32*
X21650000Y-27400000D03*
X19750000Y-27400000D03*
D31*
X33050000Y-29400000D03*
X33050000Y-31300000D03*
D32*
X48550000Y-21800000D03*
X46650000Y-21800000D03*
D31*
X40200000Y-34650000D03*
X40200000Y-36550000D03*
X14500000Y-28850000D03*
X14500000Y-30750000D03*
D32*
X18550000Y-45500000D03*
X16650000Y-45500000D03*
X19650000Y-45500000D03*
X21550000Y-45500000D03*
X88650000Y-26600000D03*
X90550000Y-26600000D03*
D31*
X23300000Y-42750000D03*
X23300000Y-40850000D03*
D32*
X14450000Y-44000000D03*
X12550000Y-44000000D03*
X90550000Y-28700000D03*
X88650000Y-28700000D03*
D31*
X7050000Y-37300000D03*
X7050000Y-39200000D03*
D32*
X6750000Y-40700000D03*
X8650000Y-40700000D03*
X32450000Y-3600000D03*
X34350000Y-3600000D03*
X34350000Y-1700000D03*
X32450000Y-1700000D03*
D31*
X12700000Y-37250000D03*
X12700000Y-39150000D03*
D32*
X11550000Y-40700000D03*
X9650000Y-40700000D03*
D31*
X39100000Y-1650000D03*
X39100000Y-3550000D03*
D32*
X85650000Y-36100000D03*
X87550000Y-36100000D03*
D31*
X40700000Y-3550000D03*
X40700000Y-1650000D03*
X42400000Y-3550000D03*
X42400000Y-1650000D03*
X48400000Y-13550000D03*
X48400000Y-15450000D03*
X48400000Y-16450000D03*
X48400000Y-18350000D03*
X45900000Y-13550000D03*
X45900000Y-15450000D03*
X45900000Y-16450000D03*
X45900000Y-18350000D03*
D32*
X43750000Y-40900000D03*
X41850000Y-40900000D03*
X51650000Y-32500000D03*
X53550000Y-32500000D03*
X49550000Y-32500000D03*
X47650000Y-32500000D03*
X49500000Y-9250000D03*
X47600000Y-9250000D03*
X51600000Y-9250000D03*
X53500000Y-9250000D03*
X44600000Y-22950000D03*
X42700000Y-22950000D03*
X42400000Y-19650000D03*
X40500000Y-19650000D03*
X60150000Y-9050000D03*
X62050000Y-9050000D03*
X67250000Y-9600000D03*
X65350000Y-9600000D03*
X42700000Y-29550000D03*
X40800000Y-29550000D03*
X45500000Y-26650000D03*
X43600000Y-26650000D03*
D31*
X66350000Y-40600000D03*
X66350000Y-38700000D03*
X62400000Y-40000000D03*
X62400000Y-38100000D03*
D33*
X35898280Y-26347020D03*
D34*
X35397900Y-26347020D03*
X34897520Y-26347020D03*
X34397140Y-26347020D03*
D33*
X33899300Y-26347020D03*
X33398920Y-26347020D03*
X32901080Y-26347020D03*
X32400700Y-26347020D03*
D34*
X31902860Y-26347020D03*
X31402480Y-26347020D03*
X30902100Y-26347020D03*
D33*
X30401720Y-26347020D03*
D35*
X29052980Y-24998280D03*
D36*
X29052980Y-24497900D03*
X29052980Y-23997520D03*
X29052980Y-23497140D03*
D35*
X29052980Y-22999300D03*
X29052980Y-22498920D03*
X29052980Y-22001080D03*
X29052980Y-21500700D03*
D36*
X29052980Y-21002860D03*
X29052980Y-20502480D03*
X29052980Y-20002100D03*
D35*
X29052980Y-19501720D03*
D33*
X35898280Y-18152980D03*
D34*
X35397900Y-18152980D03*
X34897520Y-18152980D03*
X34397140Y-18152980D03*
D33*
X33899300Y-18152980D03*
X33398920Y-18152980D03*
X32901080Y-18152980D03*
X32400700Y-18152980D03*
D34*
X31902860Y-18152980D03*
X31402480Y-18152980D03*
X30902100Y-18152980D03*
D33*
X30401720Y-18152980D03*
D35*
X37247020Y-24998280D03*
D36*
X37247020Y-24497900D03*
X37247020Y-23997520D03*
X37247020Y-23497140D03*
D35*
X37247020Y-22999300D03*
X37247020Y-22498920D03*
X37247020Y-22001080D03*
X37247020Y-21500700D03*
D36*
X37247020Y-21002860D03*
X37247020Y-20502480D03*
X37247020Y-20002100D03*
D35*
X37247020Y-19501720D03*
D37*
X33899120Y-34499380D03*
X30200880Y-34499380D03*
X30200880Y-36800620D03*
X33899120Y-36800620D03*
D38*
X14700640Y-15298860D03*
X14700640Y-15799240D03*
X14700640Y-16299620D03*
X14700640Y-16800000D03*
X14700640Y-17300380D03*
X14700640Y-17800760D03*
X14700640Y-18301140D03*
D39*
X15698860Y-19299360D03*
X16199240Y-19299360D03*
X16699620Y-19299360D03*
X17200000Y-19299360D03*
X17700380Y-19299360D03*
X18200760Y-19299360D03*
X18701140Y-19299360D03*
D38*
X19699360Y-18301140D03*
X19699360Y-17800760D03*
X19699360Y-17300380D03*
X19699360Y-16800000D03*
X19699360Y-16299620D03*
X19699360Y-15799240D03*
X19699360Y-15298860D03*
D39*
X18701140Y-14300640D03*
X18200760Y-14300640D03*
X17700380Y-14300640D03*
X17200000Y-14300640D03*
X16699620Y-14300640D03*
X16199240Y-14300640D03*
X15698860Y-14300640D03*
D40*
X17200000Y-16800000D03*
D41*
X17200000Y-16800000D03*
D42*
X7400000Y-29595000D03*
X7400000Y-30865000D03*
X7400000Y-32135000D03*
X7400000Y-33405000D03*
X12800000Y-33405000D03*
X12800000Y-32135000D03*
X12800000Y-30865000D03*
X12800000Y-29595000D03*
D43*
X82945000Y-32350000D03*
X84215000Y-32350000D03*
X85485000Y-32350000D03*
X86755000Y-32350000D03*
X86755000Y-26950000D03*
X85485000Y-26950000D03*
X84215000Y-26950000D03*
X82945000Y-26950000D03*
D44*
X9000000Y-37250000D03*
X9000000Y-38200000D03*
X9000000Y-39150000D03*
X11200000Y-39150000D03*
X11200000Y-37250000D03*
D42*
X34620000Y-43700000D03*
X34620000Y-44700000D03*
X34620000Y-45700000D03*
X34620000Y-46700000D03*
X39780000Y-46700000D03*
X39780000Y-45700000D03*
X39780000Y-44700000D03*
X39780000Y-43700000D03*
X34620000Y-47700000D03*
X39780000Y-47700000D03*
D45*
X60325000Y-19450000D03*
X60975000Y-19450000D03*
X61625000Y-19450000D03*
X62275000Y-19450000D03*
X62925000Y-19450000D03*
X63575000Y-19450000D03*
X64225000Y-19450000D03*
X64875000Y-19450000D03*
X65525000Y-19450000D03*
X66175000Y-19450000D03*
X66825000Y-19450000D03*
X67475000Y-19450000D03*
X67475000Y-13350000D03*
X66825000Y-13350000D03*
X66175000Y-13350000D03*
X65525000Y-13350000D03*
X64875000Y-13350000D03*
X64225000Y-13350000D03*
X63575000Y-13350000D03*
X62925000Y-13350000D03*
X62275000Y-13350000D03*
X61625000Y-13350000D03*
X60975000Y-13350000D03*
X60325000Y-13350000D03*
D46*
X63900000Y-16400000D03*
D41*
X63900000Y-16400000D03*
D45*
X67575000Y-29350000D03*
X66925000Y-29350000D03*
X66275000Y-29350000D03*
X65625000Y-29350000D03*
X64975000Y-29350000D03*
X64325000Y-29350000D03*
X63675000Y-29350000D03*
X63025000Y-29350000D03*
X62375000Y-29350000D03*
X61725000Y-29350000D03*
X61075000Y-29350000D03*
X60425000Y-29350000D03*
X60425000Y-35450000D03*
X61075000Y-35450000D03*
X61725000Y-35450000D03*
X62375000Y-35450000D03*
X63025000Y-35450000D03*
X63675000Y-35450000D03*
X64325000Y-35450000D03*
X64975000Y-35450000D03*
X65625000Y-35450000D03*
X66275000Y-35450000D03*
X66925000Y-35450000D03*
X67575000Y-35450000D03*
D46*
X64000000Y-32400000D03*
D41*
X64000000Y-32400000D03*
D27*
X12500000Y-48000000D03*
D28*
X15040000Y-48000000D03*
X17580000Y-48000000D03*
X20120000Y-48000000D03*
X22660000Y-48000000D03*
X25200000Y-48000000D03*
X27740000Y-48000000D03*
X30280000Y-48000000D03*
D47*
X35499240Y-1650000D03*
X35499240Y-3550000D03*
X37498220Y-2600000D03*
D32*
X67650000Y-22700000D03*
X65750000Y-22700000D03*
X60950000Y-26100000D03*
X62850000Y-26100000D03*
D14*
X69100000Y-19500000D03*
X69100000Y-17500000D03*
X58800000Y-30850000D03*
X58800000Y-32850000D03*
D48*
X83800000Y-25300000D03*
X83800000Y-22300000D03*
D31*
X17200000Y-9600000D03*
X17200000Y-11500000D03*
D20*
X55600000Y-42800000D03*
X45440000Y-42800000D03*
D49*
X18250000Y-35548000D03*
D50*
X18250000Y-42152000D03*
X20536000Y-42152000D03*
X15964000Y-42152000D03*
D51*
X52750000Y-44750000D03*
X51250000Y-44750000D03*
X49750000Y-44750000D03*
X48250000Y-44750000D03*
D52*
X54800000Y-47000000D03*
X46200000Y-47000000D03*
D51*
X52750000Y-35850000D03*
X51250000Y-35850000D03*
X49750000Y-35850000D03*
X48250000Y-35850000D03*
D52*
X54800000Y-38100000D03*
X46200000Y-38100000D03*
D51*
X48250000Y-5250000D03*
X49750000Y-5250000D03*
X51250000Y-5250000D03*
X52750000Y-5250000D03*
D52*
X46200000Y-3000000D03*
X54800000Y-3000000D03*
D51*
X61750000Y-5250000D03*
X63250000Y-5250000D03*
X64750000Y-5250000D03*
X66250000Y-5250000D03*
D52*
X59700000Y-3000000D03*
X68300000Y-3000000D03*
D51*
X66250000Y-44750000D03*
X64750000Y-44750000D03*
X63250000Y-44750000D03*
X61750000Y-44750000D03*
D52*
X68300000Y-47000000D03*
X59700000Y-47000000D03*
D47*
X17199240Y-38050000D03*
X17199240Y-39950000D03*
X19198220Y-39000000D03*
D31*
X83600000Y-36150000D03*
X83600000Y-34250000D03*
M02*
