M48
;DRILL file {KiCad 4.0.0-stable} date 12/17/2015 2:41:50 PM
;FORMAT={-:-/ absolute / metric / decimal}
FMAT,2
METRIC,TZ
T1C0.400
T2C0.600
T3C0.800
T4C0.800
T5C0.813
T6C1.001
T7C1.016
T8C1.270
T9C1.500
T10C2.000
T11C2.301
T12C2.500
T13C3.400
%
G90
G05
M71
T1
X4.75Y-34.25
X4.95Y-38.7
X7.1Y-36.
X12.5Y-36.1
X14.8Y-36.8
X15.5Y-20.6
X16.5Y-31.75
X16.55Y-12.4
X17.7Y-31.
X17.85Y-32.25
X18.95Y-10.8
X20.3Y-25.7
X20.75Y-24.1
X22.05Y-22.85
X22.65Y-26.05
X22.75Y-23.45
X25.6Y-28.55
X26.15Y-23.9
X26.4Y-31.1
X28.55Y-16.75
X30.Y-33.35
X30.4Y-42.8
X30.85Y-5.4
X31.2Y-43.6
X37.35Y-30.15
X37.45Y-8.
X40.4Y-17.75
X41.Y-28.3
X41.1Y-21.95
X41.45Y-18.1
X42.1Y-36.1
X42.7Y-11.1
X43.3Y-9.95
X43.55Y-29.6
X43.6Y-18.75
X44.3Y-14.55
X46.65Y-27.55
X47.65Y-20.95
X50.95Y-17.75
X51.6Y-17.15
X52.5Y-19.3
X52.6Y-16.9
X52.6Y-20.3
X53.05Y-18.65
X56.15Y-13.9
X61.35Y-23.85
X61.9Y-27.25
X62.1Y-24.3
X63.65Y-24.5
X64.Y-23.7
X68.7Y-24.35
X70.6Y-18.4
X71.1Y-20.2
X72.7Y-10.35
X72.75Y-18.55
T2
X27.3Y-28.7
T3
X9.35Y-24.3
X9.7Y-42.1
X16.4Y-40.4
X21.3Y-39.5
X21.65Y-20.
X27.25Y-43.15
X34.5Y-40.9
X39.15Y-11.85
X39.5Y-5.55
X40.45Y-14.45
X43.6Y-8.4
X49.7Y-14.35
X50.15Y-31.15
X50.55Y-28.4
X50.6Y-10.5
X51.55Y-26.4
X54.95Y-35.95
X56.05Y-27.1
X56.2Y-20.1
X56.8Y-22.85
X57.3Y-8.7
X57.85Y-28.7
X59.Y-9.2
X59.4Y-25.05
X60.Y-38.35
X60.9Y-39.9
X67.75Y-40.3
X68.35Y-9.1
X68.45Y-10.3
X68.7Y-39.45
X70.05Y-44.15
X70.85Y-10.3
X71.6Y-25.1
X72.45Y-27.25
X73.4Y-22.25
X74.45Y-42.85
X75.55Y-12.6
X80.7Y-5.4
X85.7Y-5.4
X86.85Y-45.6
X88.95Y-34.
X94.8Y-32.7
X94.8Y-37.7
T4
X39.4Y-38.2
T5
X6.001Y-17.66
X6.001Y-20.2
X8.Y-17.66
X8.Y-20.2
T6
X2.4Y-27.96
X2.4Y-30.5
X2.4Y-35.76
X2.4Y-38.3
X22.003Y-33.
X94.397Y-22.1
T7
X12.5Y-2.
X12.5Y-48.
X15.04Y-2.
X15.04Y-48.
X17.58Y-2.
X17.58Y-48.
X20.12Y-2.
X20.12Y-48.
X20.36Y-29.8
X22.66Y-2.
X22.66Y-48.
X22.9Y-29.8
X25.02Y-14.9
X25.2Y-2.
X25.2Y-48.
X27.56Y-14.9
X27.74Y-2.
X27.74Y-48.
X30.1Y-14.9
X30.28Y-2.
X30.28Y-48.
T8
X22.003Y-43.16
X94.397Y-11.94
T9
X84.401Y-16.1
X89.399Y-16.1
T10
X17.2Y-16.8
T11
X3.301Y-12.931
X3.301Y-24.929
T12
X63.9Y-16.4
X64.Y-32.4
T13
X3.5Y-3.5
X3.5Y-46.5
X73.5Y-3.5
X73.5Y-46.5
X96.Y-3.5
X96.Y-46.5
T0
M30
