M48
;DRILL file {KiCad 4.0.0-stable} date 2/11/2016 12:20:59 PM
;FORMAT={-:-/ absolute / metric / decimal}
FMAT,2
METRIC,TZ
T1C0.400
T2C0.800
T3C0.800
T4C0.813
T5C1.001
T6C1.016
T7C1.270
T8C1.500
T9C2.000
T10C2.301
T11C2.500
T12C3.400
%
G90
G05
M71
T1
X3.8Y-34.1
X4.2Y-38.8
X7.1Y-36.
X12.5Y-36.1
X13.6Y-34.4
X15.5Y-20.6
X16.5Y-31.75
X16.55Y-12.4
X17.7Y-31.
X17.85Y-32.25
X18.95Y-10.8
X20.3Y-25.7
X20.75Y-24.1
X22.05Y-22.85
X22.65Y-26.05
X22.75Y-23.45
X25.6Y-28.55
X26.15Y-23.9
X26.4Y-31.1
X27.1Y-38.4
X28.55Y-16.75
X30.85Y-5.4
X30.9Y-41.7
X31.7Y-42.1
X33.8Y-5.3
X37.35Y-30.15
X40.4Y-17.75
X41.Y-28.3
X41.1Y-21.95
X41.45Y-18.1
X42.1Y-36.1
X42.7Y-11.1
X43.55Y-29.6
X43.6Y-18.75
X44.3Y-14.55
X45.5Y-10.1
X47.4Y-26.8
X47.65Y-20.95
X50.95Y-17.75
X51.6Y-17.15
X52.2Y-20.7
X52.5Y-19.3
X52.6Y-16.9
X53.05Y-18.65
X56.15Y-13.9
X61.35Y-23.85
X61.9Y-27.25
X62.1Y-24.3
X63.65Y-24.5
X64.Y-23.7
X68.7Y-24.35
X70.6Y-18.4
X71.1Y-20.2
X72.75Y-18.55
X74.Y-14.4
T2
X9.35Y-24.3
X13.8Y-13.2
X15.5Y-44.
X21.65Y-20.
X25.3Y-40.7
X28.7Y-29.7
X31.Y-33.
X34.5Y-40.9
X38.6Y-6.1
X40.45Y-14.45
X41.7Y-5.6
X44.8Y-4.8
X46.9Y-7.3
X49.7Y-14.35
X50.15Y-31.15
X50.55Y-28.4
X50.6Y-10.5
X51.55Y-26.4
X54.2Y-27.1
X54.8Y-19.5
X56.05Y-27.1
X56.2Y-20.1
X57.3Y-8.7
X57.4Y-46.5
X59.Y-9.2
X59.4Y-25.05
X60.Y-38.35
X60.9Y-39.9
X67.75Y-40.3
X68.35Y-9.1
X68.45Y-10.3
X68.7Y-39.45
X69.Y-44.
X70.Y-12.
X71.6Y-25.1
X73.4Y-22.25
X76.4Y-11.1
X80.6Y-14.3
X80.7Y-5.4
X83.2Y-46.7
X85.7Y-5.4
X86.85Y-45.6
X88.95Y-34.
X94.8Y-32.7
X94.8Y-37.7
T3
X39.4Y-38.2
T4
X6.001Y-17.66
X6.001Y-20.2
X8.Y-17.66
X8.Y-20.2
T5
X2.4Y-27.96
X2.4Y-30.5
X2.4Y-35.76
X2.4Y-38.3
X25.303Y-35.
X45.44Y-42.8
X55.6Y-42.8
X94.397Y-22.1
T6
X12.5Y-2.
X12.5Y-48.
X15.04Y-2.
X15.04Y-48.
X17.58Y-2.
X17.58Y-48.
X20.12Y-2.
X20.12Y-48.
X20.36Y-29.8
X22.66Y-2.
X22.66Y-48.
X22.9Y-29.8
X25.02Y-14.9
X25.2Y-2.
X25.2Y-48.
X27.56Y-14.9
X27.74Y-2.
X27.74Y-48.
X30.1Y-14.9
X30.28Y-2.
X30.28Y-48.
T7
X25.303Y-45.16
X94.397Y-11.94
T8
X84.401Y-16.1
X89.399Y-16.1
T9
X17.2Y-16.8
T10
X3.301Y-12.931
X3.301Y-24.929
T11
X63.9Y-16.4
X64.Y-32.4
T12
X3.5Y-3.5
X3.5Y-46.5
X73.5Y-3.5
X73.5Y-46.5
X96.Y-3.5
X96.Y-46.5
T0
M30
