<?xml version="1.0" standalone="no"?>
 <!DOCTYPE svg PUBLIC "-//W3C//DTD SVG 1.1//EN" 
 "http://www.w3.org/Graphics/SVG/1.1/DTD/svg11.dtd"> 
<svg xmlns="http://www.w3.org/2000/svg" version="1.1" 
    width="1.09982cm" height="2.05232cm" viewBox="0 0 4330 8080 ">
<title>SVG Picture created as lcu03-hs-F.Cu.svg date 2015/12/08 12:08:18 </title>
  <desc>Picture generated by PCBNEW </desc>
<g style="fill:#000000; fill-opacity:1;stroke:#000000; stroke-opacity:1;
stroke-linecap:round; stroke-linejoin:round; "
 transform="translate(0 0) scale(1 1)">
</g>
<g style="fill:#C1C100; fill-opacity:0.0; 
stroke:#C1C100; stroke-width:-0.000393701; stroke-opacity:1; 
stroke-linecap:round; stroke-linejoin:round;">
</g>
<g style="fill:#C1C100; fill-opacity:0.0; 
stroke:#C1C100; stroke-width:59.0551; stroke-opacity:1; 
stroke-linecap:round; stroke-linejoin:round;">
<path d="M501 1748
L3257 1748
" />
<path d="M501 8047
L501 1748
" />
<path d="M3257 8047
L501 8047
" />
<path d="M3257 1748
L3257 8047
" />
</g>
<g style="fill:#840000; fill-opacity:0.0; 
stroke:#840000; stroke-width:59.0551; stroke-opacity:1; 
stroke-linecap:round; stroke-linejoin:round;">
</g>
<g style="fill:#840000; fill-opacity:0.0; 
stroke:#840000; stroke-width:472.441; stroke-opacity:1; 
stroke-linecap:round; stroke-linejoin:round;">
<path d="M2509 1807
L2509 1689
" />
<path d="M1879 1807
L1879 1689
" />
<path d="M1249 1807
L1249 1689
" />
</g>
<g style="fill:#840000; fill-opacity:1.0; 
stroke:#840000; stroke-width:0; stroke-opacity:1; 
stroke-linecap:round; stroke-linejoin:round;">
<circle cx="1879.21" cy="6866.8" r="846.457" /> 
</g>
<g style="fill:#840000; fill-opacity:1.0; 
stroke:#840000; stroke-width:39.3701; stroke-opacity:1; 
stroke-linecap:round; stroke-linejoin:round;">
</g>
<g style="fill:#840000; fill-opacity:1.0; 
stroke:#840000; stroke-width:0; stroke-opacity:1; 
stroke-linecap:round; stroke-linejoin:round;">
<polyline style="fill-rule:evenodd;"
points="2646,3904
2646,3608
2331,3608
2331,3904
2646,3904
" /> 
<polyline style="fill-rule:evenodd;"
points="2056,3904
2056,3608
1741,3608
1741,3904
2056,3904
" /> 
<polyline style="fill-rule:evenodd;"
points="954,4110
1308,4110
1308,3914
954,3914
954,4110
" /> 
<polyline style="fill-rule:evenodd;"
points="954,3520
1308,3520
1308,3323
954,3323
954,3520
" /> 
<polyline style="fill-rule:evenodd;"
points="2410,3402
2410,3008
2095,3008
2095,3402
2410,3402
" /> 
<polyline style="fill-rule:evenodd;"
points="1662,3402
1662,3008
1347,3008
1347,3402
1662,3402
" /> 
<polyline style="fill-rule:evenodd;"
points="2036,2457
2036,2063
1721,2063
1721,2457
2036,2457
" /> 
</g>
<g style="fill:#840000; fill-opacity:1.0; 
stroke:#840000; stroke-width:157.48; stroke-opacity:1; 
stroke-linecap:round; stroke-linejoin:round;">
</g>
<g style="fill:#840000; fill-opacity:0.0; 
stroke:#840000; stroke-width:157.48; stroke-opacity:1; 
stroke-linecap:round; stroke-linejoin:round;">
<path d="M1131 4012
L1229 4012
" />
<path d="M1229 4012
L1288 4071
" />
<path d="M1288 4071
L2391 4071
" />
<path d="M2391 4071
L2489 3973
" />
<path d="M2489 3973
L2489 3756
" />
<path d="M2489 3756
L2489 3441
" />
<path d="M2489 3441
L2253 3205
" />
<path d="M2253 3205
L2253 2910
" />
<path d="M2253 2910
L2509 2654
" />
<path d="M2509 2654
L2509 1748
" />
<path d="M1898 3756
L1564 3756
" />
<path d="M1564 3756
L1524 3717
" />
<path d="M1524 3717
L816 3717
" />
<path d="M816 3717
L776 3756
" />
<path d="M776 3756
L776 4347
" />
<path d="M776 4347
L1013 4583
" />
<path d="M1013 4583
L1446 4583
" />
<path d="M1446 4583
L1879 5016
" />
<path d="M1898 3756
L1898 2280
" />
<path d="M1898 2280
L1879 2260
" />
<path d="M1879 6866
L1879 5016
" />
<path d="M1879 1748
L1879 2260
" />
<path d="M1131 3421
L1426 3421
" />
<path d="M1426 3421
L1505 3343
" />
<path d="M1505 3343
L1505 3205
" />
<path d="M1249 1748
L1249 2536
" />
<path d="M1249 2536
L1505 2791
" />
<path d="M1505 2791
L1505 3205
" />
<path d="M1505 3225
L1505 3205
" />
</g>
<g style="fill:#840000; fill-opacity:1.0; 
stroke:#840000; stroke-width:100; stroke-opacity:1; 
stroke-linecap:round; stroke-linejoin:round;">
<polyline style="fill-rule:evenodd;"
points="2852,2162
2837,2172
2837,2654
2812,2780
2778,2830
2741,2886
2657,2970
2665,3008
2665,3152
2721,3209
2793,3315
2813,3419
2824,3426
2881,3509
2901,3608
2901,3904
2884,3996
2829,4081
2783,4113
2752,4159
2721,4205
2623,4303
2516,4375
2391,4400
1288,4400
1162,4375
1148,4365
954,4365
861,4348
780,4296
780,7768
2977,7768
2977,2028
2942,2028
2852,2162
" /> 
<polyline style="fill-rule:evenodd;"
points="1593,2162
1578,2172
1578,2399
1737,2559
1808,2666
1833,2791
1833,2821
1840,2825
1879,2882
1913,2830
1944,2809
1949,2784
2020,2677
2180,2518
2180,2172
2165,2162
2075,2028
1682,2028
1593,2162
" /> 
</g>
<g style="fill:#FFFFFF; fill-opacity:1.0; 
stroke:#FFFFFF; stroke-width:100; stroke-opacity:1; 
stroke-linecap:round; stroke-linejoin:round;">
</g>
<g style="fill:#FFFFFF; fill-opacity:1.0; 
stroke:#FFFFFF; stroke-width:0; stroke-opacity:1; 
stroke-linecap:round; stroke-linejoin:round;">
<circle cx="2509.13" cy="1748.69" r="137.795" /> 
</g>
<g style="fill:#FFFFFF; fill-opacity:1.0; 
stroke:#FFFFFF; stroke-width:39.3701; stroke-opacity:1; 
stroke-linecap:round; stroke-linejoin:round;">
</g>
<g style="fill:#FFFFFF; fill-opacity:1.0; 
stroke:#FFFFFF; stroke-width:0; stroke-opacity:1; 
stroke-linecap:round; stroke-linejoin:round;">
<circle cx="1879.21" cy="1748.69" r="137.795" /> 
</g>
<g style="fill:#FFFFFF; fill-opacity:1.0; 
stroke:#FFFFFF; stroke-width:39.3701; stroke-opacity:1; 
stroke-linecap:round; stroke-linejoin:round;">
</g>
<g style="fill:#FFFFFF; fill-opacity:1.0; 
stroke:#FFFFFF; stroke-width:0; stroke-opacity:1; 
stroke-linecap:round; stroke-linejoin:round;">
<circle cx="1249.29" cy="1748.69" r="137.795" /> 
</g>
<g style="fill:#FFFFFF; fill-opacity:1.0; 
stroke:#FFFFFF; stroke-width:39.3701; stroke-opacity:1; 
stroke-linecap:round; stroke-linejoin:round;">
</g>
<g style="fill:#FFFFFF; fill-opacity:1.0; 
stroke:#FFFFFF; stroke-width:0; stroke-opacity:1; 
stroke-linecap:round; stroke-linejoin:round;">
<circle cx="1879.21" cy="6866.8" r="590.551" /> 
</g>
<g style="fill:#FFFFFF; fill-opacity:1.0; 
stroke:#FFFFFF; stroke-width:39.3701; stroke-opacity:1; 
stroke-linecap:round; stroke-linejoin:round;">
</g>
<g style="fill:#000000; fill-opacity:1.0; 
stroke:#000000; stroke-width:39.3701; stroke-opacity:1; 
stroke-linecap:round; stroke-linejoin:round;">
</g> 
</svg>
