G04 #@! TF.FileFunction,Legend,Bot*
%FSLAX46Y46*%
G04 Gerber Fmt 4.6, Leading zero omitted, Abs format (unit mm)*
G04 Created by KiCad (PCBNEW 4.0.0-stable) date 2/11/2016 12:20:55 PM*
%MOMM*%
G01*
G04 APERTURE LIST*
%ADD10C,0.100000*%
%ADD11C,5.400000*%
%ADD12R,1.700000X1.700000*%
%ADD13C,1.700000*%
%ADD14R,2.400000X2.400000*%
%ADD15C,2.400000*%
%ADD16C,2.398980*%
%ADD17R,2.398980X2.398980*%
%ADD18C,2.940000*%
%ADD19C,1.901140*%
%ADD20R,2.432000X2.432000*%
%ADD21O,2.432000X2.432000*%
%ADD22R,2.127200X2.432000*%
%ADD23O,2.127200X2.432000*%
%ADD24C,1.924000*%
%ADD25C,3.100020*%
%ADD26C,3.400000*%
G04 APERTURE END LIST*
D10*
%LPC*%
D11*
X73500000Y-3500000D03*
X3500000Y-3500000D03*
X3500000Y-46500000D03*
X73500000Y-46500000D03*
X96000000Y-46500000D03*
X96000000Y-3500000D03*
D12*
X85700000Y-5400000D03*
D13*
X80700000Y-5400000D03*
D12*
X94800000Y-37700000D03*
D13*
X94800000Y-32700000D03*
D14*
X2400000Y-38300000D03*
D15*
X2400000Y-35760000D03*
D14*
X2400000Y-30500000D03*
D15*
X2400000Y-27960000D03*
D16*
X25302540Y-45160000D03*
D17*
X25302540Y-35000000D03*
D16*
X94397460Y-11940000D03*
D17*
X94397460Y-22100000D03*
D18*
X84400640Y-16100000D03*
X89399360Y-16100000D03*
D19*
X39400000Y-38200000D03*
D20*
X22900000Y-29800000D03*
D21*
X20360000Y-29800000D03*
D22*
X12500000Y-2000000D03*
D23*
X15040000Y-2000000D03*
X17580000Y-2000000D03*
X20120000Y-2000000D03*
X22660000Y-2000000D03*
X25200000Y-2000000D03*
X27740000Y-2000000D03*
X30280000Y-2000000D03*
D24*
X8000000Y-17660000D03*
X8000000Y-20200000D03*
X6001020Y-20200000D03*
X6001020Y-17660000D03*
D25*
X3301000Y-12930520D03*
X3301000Y-24929480D03*
D22*
X30100000Y-14900000D03*
D23*
X27560000Y-14900000D03*
X25020000Y-14900000D03*
D26*
X17200000Y-16800000D03*
X63900000Y-16400000D03*
X64000000Y-32400000D03*
D22*
X12500000Y-48000000D03*
D23*
X15040000Y-48000000D03*
X17580000Y-48000000D03*
X20120000Y-48000000D03*
X22660000Y-48000000D03*
X25200000Y-48000000D03*
X27740000Y-48000000D03*
X30280000Y-48000000D03*
D16*
X55600000Y-42800000D03*
X45440000Y-42800000D03*
M02*
