<?xml version="1.0" encoding="UTF-8" standalone="no"?>
<!-- Created with Inkscape (http://www.inkscape.org/) -->

<svg
   xmlns:dc="http://purl.org/dc/elements/1.1/"
   xmlns:cc="http://creativecommons.org/ns#"
   xmlns:rdf="http://www.w3.org/1999/02/22-rdf-syntax-ns#"
   xmlns:svg="http://www.w3.org/2000/svg"
   xmlns="http://www.w3.org/2000/svg"
   xmlns:sodipodi="http://sodipodi.sourceforge.net/DTD/sodipodi-0.dtd"
   xmlns:inkscape="http://www.inkscape.org/namespaces/inkscape"
   width="765"
   height="990"
   id="svg2"
   version="1.1"
   inkscape:version="0.48.4 r9939"
   sodipodi:docname="drawing.svg">
  <defs
     id="defs4" />
  <sodipodi:namedview
     id="base"
     pagecolor="#ffffff"
     bordercolor="#666666"
     borderopacity="1.0"
     inkscape:pageopacity="0.0"
     inkscape:pageshadow="2"
     inkscape:zoom="0.49497475"
     inkscape:cx="-219.46591"
     inkscape:cy="836.86878"
     inkscape:document-units="px"
     inkscape:current-layer="layer1"
     showgrid="false"
     inkscape:window-width="1326"
     inkscape:window-height="869"
     inkscape:window-x="114"
     inkscape:window-y="70"
     inkscape:window-maximized="0" />
  <metadata
     id="metadata7">
    <rdf:RDF>
      <cc:Work
         rdf:about="">
        <dc:format>image/svg+xml</dc:format>
        <dc:type
           rdf:resource="http://purl.org/dc/dcmitype/StillImage" />
        <dc:title></dc:title>
      </cc:Work>
    </rdf:RDF>
  </metadata>
  <g
     inkscape:label="Layer 1"
     inkscape:groupmode="layer"
     id="layer1"
     transform="translate(0,-62.362183)">
    <g
       id="g3539"
       transform="matrix(0.009,0,0,0.009,61.858096,113.56013)">
      <g
         id="g3323"
         style="fill:#000000;fill-opacity:1;stroke:#000000;stroke-linecap:round;stroke-linejoin:round;stroke-opacity:1" />
      <g
         id="g3325"
         style="fill:#000000;fill-opacity:0;stroke:#000000;stroke-width:-0.0003937;stroke-linecap:round;stroke-linejoin:round;stroke-opacity:1" />
      <g
         id="g3327"
         style="fill:#000000;fill-opacity:0;stroke:#000000;stroke-width:59.05509949;stroke-linecap:round;stroke-linejoin:round;stroke-opacity:1">
        <path
           id="path3329"
           d="m 18660,7509 0,-7480"
           inkscape:connector-curvature="0" />
        <path
           id="path3331"
           d="m 156,7509 18504,0"
           inkscape:connector-curvature="0" />
        <path
           id="path3333"
           d="m 156,29 0,7480"
           inkscape:connector-curvature="0" />
        <path
           id="path3335"
           d="M 18660,29 156,29"
           inkscape:connector-curvature="0" />
      </g>
      <g
         id="g3337"
         style="fill:#000000;fill-opacity:1;stroke:#000000;stroke-width:0;stroke-linecap:round;stroke-linejoin:round;stroke-opacity:1">
        <circle
           id="circle3339"
           r="800"
           cy="5541.3398"
           cx="1337.64"
           sodipodi:cx="1337.64"
           sodipodi:cy="5541.3398"
           sodipodi:rx="800"
           sodipodi:ry="800"
           d="m 2137.64,5541.3398 c 0,441.8278 -358.1722,800 -800,800 -441.82779,0 -799.99999,-358.1722 -799.99999,-800 0,-441.8278 358.1722,-800 799.99999,-800 441.8278,0 800,358.1722 800,800 z" />
      </g>
      <g
         id="g3341"
         style="fill:#000000;fill-opacity:1;stroke:#000000;stroke-width:39.37009811;stroke-linecap:round;stroke-linejoin:round;stroke-opacity:1" />
      <g
         id="g3343"
         style="fill:#000000;fill-opacity:1;stroke:#000000;stroke-width:0;stroke-linecap:round;stroke-linejoin:round;stroke-opacity:1">
        <circle
           id="circle3345"
           r="800"
           cy="1998.03"
           cx="1337.64"
           sodipodi:cx="1337.64"
           sodipodi:cy="1998.03"
           sodipodi:rx="800"
           sodipodi:ry="800"
           d="m 2137.64,1998.03 c 0,441.8278 -358.1722,800 -800,800 -441.82779,0 -799.99999,-358.1722 -799.99999,-800 0,-441.8278 358.1722,-800 799.99999,-800 441.8278,0 800,358.1722 800,800 z" />
      </g>
      <g
         id="g3347"
         style="fill:#000000;fill-opacity:1;stroke:#000000;stroke-width:39.37009811;stroke-linecap:round;stroke-linejoin:round;stroke-opacity:1" />
      <g
         id="g3349"
         style="fill:#000000;fill-opacity:1;stroke:#000000;stroke-width:0;stroke-linecap:round;stroke-linejoin:round;stroke-opacity:1">
        <circle
           id="circle3351"
           r="800"
           cy="2706.6899"
           cx="17164.4"
           sodipodi:cx="17164.4"
           sodipodi:cy="2706.6899"
           sodipodi:rx="800"
           sodipodi:ry="800"
           d="m 17964.4,2706.6899 c 0,441.8278 -358.172,800 -800,800 -441.827,0 -800,-358.1722 -800,-800 0,-441.8278 358.173,-800 800,-800 441.828,0 800,358.1722 800,800 z" />
      </g>
      <g
         id="g3353"
         style="fill:#000000;fill-opacity:1;stroke:#000000;stroke-width:39.37009811;stroke-linecap:round;stroke-linejoin:round;stroke-opacity:1" />
      <g
         id="g3355"
         style="fill:#000000;fill-opacity:1;stroke:#000000;stroke-width:0;stroke-linecap:round;stroke-linejoin:round;stroke-opacity:1">
        <circle
           id="circle3357"
           r="800"
           cy="4655.5098"
           cx="17144.699"
           sodipodi:cx="17144.699"
           sodipodi:cy="4655.5098"
           sodipodi:rx="800"
           sodipodi:ry="800"
           d="m 17944.699,4655.5098 c 0,441.8278 -358.172,800 -800,800 -441.828,0 -800,-358.1722 -800,-800 0,-441.8278 358.172,-800 800,-800 441.828,0 800,358.1722 800,800 z" />
      </g>
      <g
         id="g3359"
         style="fill:#000000;fill-opacity:1;stroke:#000000;stroke-width:39.37009811;stroke-linecap:round;stroke-linejoin:round;stroke-opacity:1" />
      <g
         id="g3361"
         style="fill:#000000;fill-opacity:1;stroke:#000000;stroke-width:0;stroke-linecap:round;stroke-linejoin:round;stroke-opacity:1">
        <polyline
           id="polyline3363"
           points="10575,2655 9775,2655 9775,4095 10575,4095 10575,2655 "
           style="fill-rule:evenodd" />
        <polyline
           id="polyline3365"
           points="13175,3175 12375,3175 12375,3575 13175,3575 13175,3175 "
           style="fill-rule:evenodd" />
        <polyline
           id="polyline3367"
           points="13175,4075 12375,4075 12375,4475 13175,4475 13175,4075 "
           style="fill-rule:evenodd" />
        <polyline
           id="polyline3369"
           points="13175,2275 12375,2275 12375,2675 13175,2675 13175,2275 "
           style="fill-rule:evenodd" />
        <polyline
           id="polyline3371"
           points="14871,4064 14378,4064 14378,4655 14871,4655 14871,4064 "
           style="fill-rule:evenodd" />
        <polyline
           id="polyline3373"
           points="14871,5049 14378,5049 14378,5639 14871,5639 14871,5049 "
           style="fill-rule:evenodd" />
        <polyline
           id="polyline3375"
           points="13985,4064 13493,4064 13493,4655 13985,4655 13985,4064 "
           style="fill-rule:evenodd" />
        <polyline
           id="polyline3377"
           points="13985,5049 13493,5049 13493,5639 13985,5639 13985,5049 "
           style="fill-rule:evenodd" />
        <polyline
           id="polyline3379"
           points="15323,3553 15815,3553 15815,2962 15323,2962 15323,3553 "
           style="fill-rule:evenodd" />
        <polyline
           id="polyline3381"
           points="15323,2568 15815,2568 15815,1978 15323,1978 15323,2568 "
           style="fill-rule:evenodd" />
        <polyline
           id="polyline3383"
           points="7095,3080 6603,3080 6603,3671 7095,3671 7095,3080 "
           style="fill-rule:evenodd" />
        <polyline
           id="polyline3385"
           points="7095,4064 6603,4064 6603,4655 7095,4655 7095,4064 "
           style="fill-rule:evenodd" />
        <polyline
           id="polyline3387"
           points="6308,3080 5815,3080 5815,3671 6308,3671 6308,3080 "
           style="fill-rule:evenodd" />
        <polyline
           id="polyline3389"
           points="6308,4064 5815,4064 5815,4655 6308,4655 6308,4064 "
           style="fill-rule:evenodd" />
        <circle
           id="circle3391"
           r="255.90601"
           cy="4557.0898"
           cx="3995.1201"
           sodipodi:cx="3995.1201"
           sodipodi:cy="4557.0898"
           sodipodi:rx="255.90601"
           sodipodi:ry="255.90601"
           d="m 4251.0261,4557.0898 c 0,141.333 -114.573,255.906 -255.906,255.906 -141.333,0 -255.906,-114.573 -255.906,-255.906 0,-141.3329 114.573,-255.906 255.906,-255.906 141.333,0 255.906,114.5731 255.906,255.906 z" />
      </g>
      <g
         id="g3393"
         style="fill:#000000;fill-opacity:1;stroke:#000000;stroke-width:39.37009811;stroke-linecap:round;stroke-linejoin:round;stroke-opacity:1" />
      <g
         id="g3395"
         style="fill:#000000;fill-opacity:1;stroke:#000000;stroke-width:0;stroke-linecap:round;stroke-linejoin:round;stroke-opacity:1">
        <polyline
           id="polyline3397"
           points="4251,2923 3739,2923 3739,3435 4251,3435 4251,2923 "
           style="fill-rule:evenodd" />
        <polyline
           id="polyline3399"
           points="13493,3572 13985,3572 13985,2982 13493,2982 13493,3572 "
           style="fill-rule:evenodd" />
        <polyline
           id="polyline3401"
           points="13493,2588 13985,2588 13985,1998 13493,1998 13493,2588 "
           style="fill-rule:evenodd" />
        <polyline
           id="polyline3403"
           points="14536,3553 15028,3553 15028,2962 14536,2962 14536,3553 "
           style="fill-rule:evenodd" />
        <polyline
           id="polyline3405"
           points="14536,2568 15028,2568 15028,1978 14536,1978 14536,2568 "
           style="fill-rule:evenodd" />
      </g>
      <g
         id="g3407"
         style="fill:#000000;fill-opacity:1;stroke:#000000;stroke-width:472.44100952;stroke-linecap:round;stroke-linejoin:round;stroke-opacity:1" />
      <g
         id="g3409"
         style="fill:#000000;fill-opacity:0;stroke:#000000;stroke-width:472.44100952;stroke-linecap:round;stroke-linejoin:round;stroke-opacity:1">
        <path
           id="path3411"
           d="m 13739,4360 -880,0"
           inkscape:connector-curvature="0" />
        <path
           id="path3413"
           d="m 12859,4360 -84,-85"
           inkscape:connector-curvature="0" />
        <path
           id="path3415"
           d="m 14625,4360 -886,0"
           inkscape:connector-curvature="0" />
        <path
           id="path3417"
           d="m 17164,2706 -20,0"
           inkscape:connector-curvature="0" />
        <path
           id="path3419"
           d="M 17144,2706 15491,4360"
           inkscape:connector-curvature="0" />
        <path
           id="path3421"
           d="m 15491,4360 -866,0"
           inkscape:connector-curvature="0" />
        <path
           id="path3423"
           d="m 3995,4557 -99,0"
           inkscape:connector-curvature="0" />
        <path
           id="path3425"
           d="m 3896,4557 -984,984"
           inkscape:connector-curvature="0" />
        <path
           id="path3427"
           d="m 2912,5541 -1575,0"
           inkscape:connector-curvature="0" />
      </g>
      <g
         id="g3429"
         style="fill:#000000;fill-opacity:0;stroke:#000000;stroke-width:314.96099854;stroke-linecap:round;stroke-linejoin:round;stroke-opacity:1">
        <path
           id="path3431"
           d="m 13739,5344 0,1575"
           inkscape:connector-curvature="0" />
        <path
           id="path3433"
           d="m 6849,6722 0,-2362"
           inkscape:connector-curvature="0" />
        <path
           id="path3435"
           d="M 7243,7116 6849,6722"
           inkscape:connector-curvature="0" />
        <path
           id="path3437"
           d="m 13542,7116 -6299,0"
           inkscape:connector-curvature="0" />
        <path
           id="path3439"
           d="m 13739,6919 -197,197"
           inkscape:connector-curvature="0" />
        <path
           id="path3441"
           d="m 15569,2273 -787,0"
           inkscape:connector-curvature="0" />
        <path
           id="path3443"
           d="m 17144,4655 532,0"
           inkscape:connector-curvature="0" />
        <path
           id="path3445"
           d="m 17676,4655 669,-669"
           inkscape:connector-curvature="0" />
        <path
           id="path3447"
           d="m 16475,1564 -709,709"
           inkscape:connector-curvature="0" />
        <path
           id="path3449"
           d="m 17695,1564 -1220,0"
           inkscape:connector-curvature="0" />
        <path
           id="path3451"
           d="m 18345,2214 -650,-650"
           inkscape:connector-curvature="0" />
        <path
           id="path3453"
           d="m 18345,3986 0,-1772"
           inkscape:connector-curvature="0" />
        <path
           id="path3455"
           d="m 15766,2273 -197,0"
           inkscape:connector-curvature="0" />
        <path
           id="path3457"
           d="m 14625,5344 -886,0"
           inkscape:connector-curvature="0" />
        <path
           id="path3459"
           d="m 17144,4655 -531,0"
           inkscape:connector-curvature="0" />
        <path
           id="path3461"
           d="m 16613,4655 -689,689"
           inkscape:connector-curvature="0" />
        <path
           id="path3463"
           d="m 15924,5344 -1299,0"
           inkscape:connector-curvature="0" />
        <path
           id="path3465"
           d="m 6062,4360 -1123,0"
           inkscape:connector-curvature="0" />
        <path
           id="path3467"
           d="m 4743,4557 -748,0"
           inkscape:connector-curvature="0" />
        <path
           id="path3469"
           d="m 4939,4360 -196,197"
           inkscape:connector-curvature="0" />
        <path
           id="path3471"
           d="m 6849,4360 -787,0"
           inkscape:connector-curvature="0" />
        <path
           id="path3473"
           d="m 13739,2293 -296,0"
           inkscape:connector-curvature="0" />
        <path
           id="path3475"
           d="m 13261,2475 -486,0"
           inkscape:connector-curvature="0" />
        <path
           id="path3477"
           d="m 13443,2293 -182,182"
           inkscape:connector-curvature="0" />
        <path
           id="path3479"
           d="m 14782,3257 -39,0"
           inkscape:connector-curvature="0" />
        <path
           id="path3481"
           d="m 14743,3257 -965,-964"
           inkscape:connector-curvature="0" />
        <path
           id="path3483"
           d="m 13778,2293 -39,0"
           inkscape:connector-curvature="0" />
      </g>
      <g
         id="g3485"
         style="fill:#000000;fill-opacity:0;stroke:#000000;stroke-width:472.44100952;stroke-linecap:round;stroke-linejoin:round;stroke-opacity:1">
        <path
           id="path3487"
           d="m 15569,3257 -787,0"
           inkscape:connector-curvature="0" />
        <path
           id="path3489"
           d="m 3995,3179 -296,0"
           inkscape:connector-curvature="0" />
        <path
           id="path3491"
           d="m 2518,1998 -1181,0"
           inkscape:connector-curvature="0" />
        <path
           id="path3493"
           d="M 3699,3179 2518,1998"
           inkscape:connector-curvature="0" />
      </g>
      <g
         id="g3495"
         style="fill:#000000;fill-opacity:0;stroke:#000000;stroke-width:314.96099854;stroke-linecap:round;stroke-linejoin:round;stroke-opacity:1">
        <path
           id="path3497"
           d="m 6062,3375 -1004,0"
           inkscape:connector-curvature="0" />
        <path
           id="path3499"
           d="m 4861,3179 -866,0"
           inkscape:connector-curvature="0" />
        <path
           id="path3501"
           d="M 5058,3375 4861,3179"
           inkscape:connector-curvature="0" />
        <path
           id="path3503"
           d="m 6849,3375 -787,0"
           inkscape:connector-curvature="0" />
        <path
           id="path3505"
           d="m 10175,3375 -3326,0"
           inkscape:connector-curvature="0" />
        <path
           id="path3507"
           d="m 12775,3375 -2600,0"
           inkscape:connector-curvature="0" />
        <path
           id="path3509"
           d="m 13739,3277 -866,0"
           inkscape:connector-curvature="0" />
        <path
           id="path3511"
           d="m 12873,3277 -98,98"
           inkscape:connector-curvature="0" />
      </g>
      <g
         id="g3513"
         style="fill:#000000;fill-opacity:1;stroke:#000000;stroke-width:100;stroke-linecap:round;stroke-linejoin:round;stroke-opacity:1">
        <polyline
           id="polyline3515"
           points="7293,3911 7330,3965 7350,4064 7350,4655 7332,4748 7293,4810 7293,6589 7411,6708 13331,6708 13331,5832 13315,5822 13258,5738 13238,5639 13238,5049 13255,4956 13310,4871 13337,4852 13328,4846 12859,4846 12673,4809 12556,4730 12375,4730 12282,4713 12197,4658 12140,4575 12120,4475 12120,4075 12137,3983 12192,3898 12276,3841 12375,3821 12617,3821 12775,3789 12932,3821 13175,3821 13268,3838 13323,3874 13329,3874 13393,3830 13492,3810 13492,2843 13444,2834 13430,2843 13417,2852 13336,2868 13274,2910 13175,2930 12375,2930 12282,2913 12197,2858 12140,2775 12120,2675 12120,2275 12137,2183 12192,2098 12276,2041 12375,2021 13139,2021 13155,2005 13248,1943 13255,1905 13310,1820 13393,1763 13492,1743 13492,473 7293,473 7293,3911 "
           style="fill-rule:evenodd" />
      </g>
      <g
         id="g3517"
         style="fill:#ffffff;fill-opacity:1;stroke:#ffffff;stroke-width:100;stroke-linecap:round;stroke-linejoin:round;stroke-opacity:1" />
      <g
         id="g3519"
         style="fill:#ffffff;fill-opacity:1;stroke:#ffffff;stroke-width:0;stroke-linecap:round;stroke-linejoin:round;stroke-opacity:1">
        <circle
           id="circle3521"
           r="157.48"
           cy="4557.0898"
           cx="3995.1201"
           sodipodi:cx="3995.1201"
           sodipodi:cy="4557.0898"
           sodipodi:rx="157.48"
           sodipodi:ry="157.48"
           d="m 4152.6001,4557.0898 c 0,86.9738 -70.5062,157.48 -157.48,157.48 -86.9738,0 -157.48,-70.5062 -157.48,-157.48 0,-86.9738 70.5062,-157.48 157.48,-157.48 86.9738,0 157.48,70.5062 157.48,157.48 z" />
      </g>
      <g
         id="g3523"
         style="fill:#ffffff;fill-opacity:1;stroke:#ffffff;stroke-width:39.37009811;stroke-linecap:round;stroke-linejoin:round;stroke-opacity:1" />
      <g
         id="g3525"
         style="fill:#ffffff;fill-opacity:1;stroke:#ffffff;stroke-width:0;stroke-linecap:round;stroke-linejoin:round;stroke-opacity:1">
        <circle
           id="circle3527"
           r="157.48"
           cy="3179.1299"
           cx="3995.1201"
           sodipodi:cx="3995.1201"
           sodipodi:cy="3179.1299"
           sodipodi:rx="157.48"
           sodipodi:ry="157.48"
           d="m 4152.6001,3179.1299 c 0,86.9738 -70.5062,157.48 -157.48,157.48 -86.9738,0 -157.48,-70.5062 -157.48,-157.48 0,-86.9738 70.5062,-157.48 157.48,-157.48 86.9738,0 157.48,70.5062 157.48,157.48 z" />
      </g>
      <g
         id="g3529"
         style="fill:#ffffff;fill-opacity:1;stroke:#ffffff;stroke-width:39.37009811;stroke-linecap:round;stroke-linejoin:round;stroke-opacity:1" />
      <g
         id="g3531"
         style="fill:#000000;fill-opacity:1;stroke:#000000;stroke-width:39.37009811;stroke-linecap:round;stroke-linejoin:round;stroke-opacity:1" />
    </g>
    <g
       id="g3868"
       transform="matrix(0.009,0,0,0.009,246.8581,112.84584)">
      <g
         id="g3652"
         style="fill:#000000;fill-opacity:1;stroke:#000000;stroke-linecap:round;stroke-linejoin:round;stroke-opacity:1" />
      <g
         id="g3654"
         style="fill:#000000;fill-opacity:0;stroke:#000000;stroke-width:-0.0003937;stroke-linecap:round;stroke-linejoin:round;stroke-opacity:1" />
      <g
         id="g3656"
         style="fill:#000000;fill-opacity:0;stroke:#000000;stroke-width:59.05509949;stroke-linecap:round;stroke-linejoin:round;stroke-opacity:1">
        <path
           id="path3658"
           d="m 18660,7509 0,-7480"
           inkscape:connector-curvature="0" />
        <path
           id="path3660"
           d="m 156,7509 18504,0"
           inkscape:connector-curvature="0" />
        <path
           id="path3662"
           d="m 156,29 0,7480"
           inkscape:connector-curvature="0" />
        <path
           id="path3664"
           d="M 18660,29 156,29"
           inkscape:connector-curvature="0" />
      </g>
      <g
         id="g3666"
         style="fill:#000000;fill-opacity:1;stroke:#000000;stroke-width:0;stroke-linecap:round;stroke-linejoin:round;stroke-opacity:1">
        <circle
           id="circle3668"
           r="800"
           cy="5541.3398"
           cx="1337.64"
           sodipodi:cx="1337.64"
           sodipodi:cy="5541.3398"
           sodipodi:rx="800"
           sodipodi:ry="800"
           d="m 2137.64,5541.3398 c 0,441.8278 -358.1722,800 -800,800 -441.82779,0 -799.99999,-358.1722 -799.99999,-800 0,-441.8278 358.1722,-800 799.99999,-800 441.8278,0 800,358.1722 800,800 z" />
      </g>
      <g
         id="g3670"
         style="fill:#000000;fill-opacity:1;stroke:#000000;stroke-width:39.37009811;stroke-linecap:round;stroke-linejoin:round;stroke-opacity:1" />
      <g
         id="g3672"
         style="fill:#000000;fill-opacity:1;stroke:#000000;stroke-width:0;stroke-linecap:round;stroke-linejoin:round;stroke-opacity:1">
        <circle
           id="circle3674"
           r="800"
           cy="1998.03"
           cx="1337.64"
           sodipodi:cx="1337.64"
           sodipodi:cy="1998.03"
           sodipodi:rx="800"
           sodipodi:ry="800"
           d="m 2137.64,1998.03 c 0,441.8278 -358.1722,800 -800,800 -441.82779,0 -799.99999,-358.1722 -799.99999,-800 0,-441.8278 358.1722,-800 799.99999,-800 441.8278,0 800,358.1722 800,800 z" />
      </g>
      <g
         id="g3676"
         style="fill:#000000;fill-opacity:1;stroke:#000000;stroke-width:39.37009811;stroke-linecap:round;stroke-linejoin:round;stroke-opacity:1" />
      <g
         id="g3678"
         style="fill:#000000;fill-opacity:1;stroke:#000000;stroke-width:0;stroke-linecap:round;stroke-linejoin:round;stroke-opacity:1">
        <circle
           id="circle3680"
           r="800"
           cy="2706.6899"
           cx="17164.4"
           sodipodi:cx="17164.4"
           sodipodi:cy="2706.6899"
           sodipodi:rx="800"
           sodipodi:ry="800"
           d="m 17964.4,2706.6899 c 0,441.8278 -358.172,800 -800,800 -441.827,0 -800,-358.1722 -800,-800 0,-441.8278 358.173,-800 800,-800 441.828,0 800,358.1722 800,800 z" />
      </g>
      <g
         id="g3682"
         style="fill:#000000;fill-opacity:1;stroke:#000000;stroke-width:39.37009811;stroke-linecap:round;stroke-linejoin:round;stroke-opacity:1" />
      <g
         id="g3684"
         style="fill:#000000;fill-opacity:1;stroke:#000000;stroke-width:0;stroke-linecap:round;stroke-linejoin:round;stroke-opacity:1">
        <circle
           id="circle3686"
           r="800"
           cy="4655.5098"
           cx="17144.699"
           sodipodi:cx="17144.699"
           sodipodi:cy="4655.5098"
           sodipodi:rx="800"
           sodipodi:ry="800"
           d="m 17944.699,4655.5098 c 0,441.8278 -358.172,800 -800,800 -441.828,0 -800,-358.1722 -800,-800 0,-441.8278 358.172,-800 800,-800 441.828,0 800,358.1722 800,800 z" />
      </g>
      <g
         id="g3688"
         style="fill:#000000;fill-opacity:1;stroke:#000000;stroke-width:39.37009811;stroke-linecap:round;stroke-linejoin:round;stroke-opacity:1" />
      <g
         id="g3690"
         style="fill:#000000;fill-opacity:1;stroke:#000000;stroke-width:0;stroke-linecap:round;stroke-linejoin:round;stroke-opacity:1">
        <polyline
           id="polyline3692"
           points="10575,2655 9775,2655 9775,4095 10575,4095 10575,2655 "
           style="fill-rule:evenodd" />
        <polyline
           id="polyline3694"
           points="13175,3175 12375,3175 12375,3575 13175,3575 13175,3175 "
           style="fill-rule:evenodd" />
        <polyline
           id="polyline3696"
           points="13175,4075 12375,4075 12375,4475 13175,4475 13175,4075 "
           style="fill-rule:evenodd" />
        <polyline
           id="polyline3698"
           points="13175,2275 12375,2275 12375,2675 13175,2675 13175,2275 "
           style="fill-rule:evenodd" />
        <polyline
           id="polyline3700"
           points="14871,4064 14378,4064 14378,4655 14871,4655 14871,4064 "
           style="fill-rule:evenodd" />
        <polyline
           id="polyline3702"
           points="14871,5049 14378,5049 14378,5639 14871,5639 14871,5049 "
           style="fill-rule:evenodd" />
        <polyline
           id="polyline3704"
           points="13985,4064 13493,4064 13493,4655 13985,4655 13985,4064 "
           style="fill-rule:evenodd" />
        <polyline
           id="polyline3706"
           points="13985,5049 13493,5049 13493,5639 13985,5639 13985,5049 "
           style="fill-rule:evenodd" />
        <polyline
           id="polyline3708"
           points="15323,3553 15815,3553 15815,2962 15323,2962 15323,3553 "
           style="fill-rule:evenodd" />
        <polyline
           id="polyline3710"
           points="15323,2568 15815,2568 15815,1978 15323,1978 15323,2568 "
           style="fill-rule:evenodd" />
        <polyline
           id="polyline3712"
           points="7095,3080 6603,3080 6603,3671 7095,3671 7095,3080 "
           style="fill-rule:evenodd" />
        <polyline
           id="polyline3714"
           points="7095,4064 6603,4064 6603,4655 7095,4655 7095,4064 "
           style="fill-rule:evenodd" />
        <polyline
           id="polyline3716"
           points="6308,3080 5815,3080 5815,3671 6308,3671 6308,3080 "
           style="fill-rule:evenodd" />
        <polyline
           id="polyline3718"
           points="6308,4064 5815,4064 5815,4655 6308,4655 6308,4064 "
           style="fill-rule:evenodd" />
        <circle
           id="circle3720"
           r="255.90601"
           cy="4557.0898"
           cx="3995.1201"
           sodipodi:cx="3995.1201"
           sodipodi:cy="4557.0898"
           sodipodi:rx="255.90601"
           sodipodi:ry="255.90601"
           d="m 4251.0261,4557.0898 c 0,141.333 -114.573,255.906 -255.906,255.906 -141.333,0 -255.906,-114.573 -255.906,-255.906 0,-141.3329 114.573,-255.906 255.906,-255.906 141.333,0 255.906,114.5731 255.906,255.906 z" />
      </g>
      <g
         id="g3722"
         style="fill:#000000;fill-opacity:1;stroke:#000000;stroke-width:39.37009811;stroke-linecap:round;stroke-linejoin:round;stroke-opacity:1" />
      <g
         id="g3724"
         style="fill:#000000;fill-opacity:1;stroke:#000000;stroke-width:0;stroke-linecap:round;stroke-linejoin:round;stroke-opacity:1">
        <polyline
           id="polyline3726"
           points="4251,2923 3739,2923 3739,3435 4251,3435 4251,2923 "
           style="fill-rule:evenodd" />
        <polyline
           id="polyline3728"
           points="13493,3572 13985,3572 13985,2982 13493,2982 13493,3572 "
           style="fill-rule:evenodd" />
        <polyline
           id="polyline3730"
           points="13493,2588 13985,2588 13985,1998 13493,1998 13493,2588 "
           style="fill-rule:evenodd" />
        <polyline
           id="polyline3732"
           points="14536,3553 15028,3553 15028,2962 14536,2962 14536,3553 "
           style="fill-rule:evenodd" />
        <polyline
           id="polyline3734"
           points="14536,2568 15028,2568 15028,1978 14536,1978 14536,2568 "
           style="fill-rule:evenodd" />
      </g>
      <g
         id="g3736"
         style="fill:#000000;fill-opacity:1;stroke:#000000;stroke-width:472.44100952;stroke-linecap:round;stroke-linejoin:round;stroke-opacity:1" />
      <g
         id="g3738"
         style="fill:#000000;fill-opacity:0;stroke:#000000;stroke-width:472.44100952;stroke-linecap:round;stroke-linejoin:round;stroke-opacity:1">
        <path
           id="path3740"
           d="m 13739,4360 -880,0"
           inkscape:connector-curvature="0" />
        <path
           id="path3742"
           d="m 12859,4360 -84,-85"
           inkscape:connector-curvature="0" />
        <path
           id="path3744"
           d="m 14625,4360 -886,0"
           inkscape:connector-curvature="0" />
        <path
           id="path3746"
           d="m 17164,2706 -20,0"
           inkscape:connector-curvature="0" />
        <path
           id="path3748"
           d="M 17144,2706 15491,4360"
           inkscape:connector-curvature="0" />
        <path
           id="path3750"
           d="m 15491,4360 -866,0"
           inkscape:connector-curvature="0" />
        <path
           id="path3752"
           d="m 3995,4557 -99,0"
           inkscape:connector-curvature="0" />
        <path
           id="path3754"
           d="m 3896,4557 -984,984"
           inkscape:connector-curvature="0" />
        <path
           id="path3756"
           d="m 2912,5541 -1575,0"
           inkscape:connector-curvature="0" />
      </g>
      <g
         id="g3758"
         style="fill:#000000;fill-opacity:0;stroke:#000000;stroke-width:314.96099854;stroke-linecap:round;stroke-linejoin:round;stroke-opacity:1">
        <path
           id="path3760"
           d="m 13739,5344 0,1575"
           inkscape:connector-curvature="0" />
        <path
           id="path3762"
           d="m 6849,6722 0,-2362"
           inkscape:connector-curvature="0" />
        <path
           id="path3764"
           d="M 7243,7116 6849,6722"
           inkscape:connector-curvature="0" />
        <path
           id="path3766"
           d="m 13542,7116 -6299,0"
           inkscape:connector-curvature="0" />
        <path
           id="path3768"
           d="m 13739,6919 -197,197"
           inkscape:connector-curvature="0" />
        <path
           id="path3770"
           d="m 15569,2273 -787,0"
           inkscape:connector-curvature="0" />
        <path
           id="path3772"
           d="m 17144,4655 532,0"
           inkscape:connector-curvature="0" />
        <path
           id="path3774"
           d="m 17676,4655 669,-669"
           inkscape:connector-curvature="0" />
        <path
           id="path3776"
           d="m 16475,1564 -709,709"
           inkscape:connector-curvature="0" />
        <path
           id="path3778"
           d="m 17695,1564 -1220,0"
           inkscape:connector-curvature="0" />
        <path
           id="path3780"
           d="m 18345,2214 -650,-650"
           inkscape:connector-curvature="0" />
        <path
           id="path3782"
           d="m 18345,3986 0,-1772"
           inkscape:connector-curvature="0" />
        <path
           id="path3784"
           d="m 15766,2273 -197,0"
           inkscape:connector-curvature="0" />
        <path
           id="path3786"
           d="m 14625,5344 -886,0"
           inkscape:connector-curvature="0" />
        <path
           id="path3788"
           d="m 17144,4655 -531,0"
           inkscape:connector-curvature="0" />
        <path
           id="path3790"
           d="m 16613,4655 -689,689"
           inkscape:connector-curvature="0" />
        <path
           id="path3792"
           d="m 15924,5344 -1299,0"
           inkscape:connector-curvature="0" />
        <path
           id="path3794"
           d="m 6062,4360 -1123,0"
           inkscape:connector-curvature="0" />
        <path
           id="path3796"
           d="m 4743,4557 -748,0"
           inkscape:connector-curvature="0" />
        <path
           id="path3798"
           d="m 4939,4360 -196,197"
           inkscape:connector-curvature="0" />
        <path
           id="path3800"
           d="m 6849,4360 -787,0"
           inkscape:connector-curvature="0" />
        <path
           id="path3802"
           d="m 13739,2293 -296,0"
           inkscape:connector-curvature="0" />
        <path
           id="path3804"
           d="m 13261,2475 -486,0"
           inkscape:connector-curvature="0" />
        <path
           id="path3806"
           d="m 13443,2293 -182,182"
           inkscape:connector-curvature="0" />
        <path
           id="path3808"
           d="m 14782,3257 -39,0"
           inkscape:connector-curvature="0" />
        <path
           id="path3810"
           d="m 14743,3257 -965,-964"
           inkscape:connector-curvature="0" />
        <path
           id="path3812"
           d="m 13778,2293 -39,0"
           inkscape:connector-curvature="0" />
      </g>
      <g
         id="g3814"
         style="fill:#000000;fill-opacity:0;stroke:#000000;stroke-width:472.44100952;stroke-linecap:round;stroke-linejoin:round;stroke-opacity:1">
        <path
           id="path3816"
           d="m 15569,3257 -787,0"
           inkscape:connector-curvature="0" />
        <path
           id="path3818"
           d="m 3995,3179 -296,0"
           inkscape:connector-curvature="0" />
        <path
           id="path3820"
           d="m 2518,1998 -1181,0"
           inkscape:connector-curvature="0" />
        <path
           id="path3822"
           d="M 3699,3179 2518,1998"
           inkscape:connector-curvature="0" />
      </g>
      <g
         id="g3824"
         style="fill:#000000;fill-opacity:0;stroke:#000000;stroke-width:314.96099854;stroke-linecap:round;stroke-linejoin:round;stroke-opacity:1">
        <path
           id="path3826"
           d="m 6062,3375 -1004,0"
           inkscape:connector-curvature="0" />
        <path
           id="path3828"
           d="m 4861,3179 -866,0"
           inkscape:connector-curvature="0" />
        <path
           id="path3830"
           d="M 5058,3375 4861,3179"
           inkscape:connector-curvature="0" />
        <path
           id="path3832"
           d="m 6849,3375 -787,0"
           inkscape:connector-curvature="0" />
        <path
           id="path3834"
           d="m 10175,3375 -3326,0"
           inkscape:connector-curvature="0" />
        <path
           id="path3836"
           d="m 12775,3375 -2600,0"
           inkscape:connector-curvature="0" />
        <path
           id="path3838"
           d="m 13739,3277 -866,0"
           inkscape:connector-curvature="0" />
        <path
           id="path3840"
           d="m 12873,3277 -98,98"
           inkscape:connector-curvature="0" />
      </g>
      <g
         id="g3842"
         style="fill:#000000;fill-opacity:1;stroke:#000000;stroke-width:100;stroke-linecap:round;stroke-linejoin:round;stroke-opacity:1">
        <polyline
           id="polyline3844"
           points="7293,3911 7330,3965 7350,4064 7350,4655 7332,4748 7293,4810 7293,6589 7411,6708 13331,6708 13331,5832 13315,5822 13258,5738 13238,5639 13238,5049 13255,4956 13310,4871 13337,4852 13328,4846 12859,4846 12673,4809 12556,4730 12375,4730 12282,4713 12197,4658 12140,4575 12120,4475 12120,4075 12137,3983 12192,3898 12276,3841 12375,3821 12617,3821 12775,3789 12932,3821 13175,3821 13268,3838 13323,3874 13329,3874 13393,3830 13492,3810 13492,2843 13444,2834 13430,2843 13417,2852 13336,2868 13274,2910 13175,2930 12375,2930 12282,2913 12197,2858 12140,2775 12120,2675 12120,2275 12137,2183 12192,2098 12276,2041 12375,2021 13139,2021 13155,2005 13248,1943 13255,1905 13310,1820 13393,1763 13492,1743 13492,473 7293,473 7293,3911 "
           style="fill-rule:evenodd" />
      </g>
      <g
         id="g3846"
         style="fill:#ffffff;fill-opacity:1;stroke:#ffffff;stroke-width:100;stroke-linecap:round;stroke-linejoin:round;stroke-opacity:1" />
      <g
         id="g3848"
         style="fill:#ffffff;fill-opacity:1;stroke:#ffffff;stroke-width:0;stroke-linecap:round;stroke-linejoin:round;stroke-opacity:1">
        <circle
           id="circle3850"
           r="157.48"
           cy="4557.0898"
           cx="3995.1201"
           sodipodi:cx="3995.1201"
           sodipodi:cy="4557.0898"
           sodipodi:rx="157.48"
           sodipodi:ry="157.48"
           d="m 4152.6001,4557.0898 c 0,86.9738 -70.5062,157.48 -157.48,157.48 -86.9738,0 -157.48,-70.5062 -157.48,-157.48 0,-86.9738 70.5062,-157.48 157.48,-157.48 86.9738,0 157.48,70.5062 157.48,157.48 z" />
      </g>
      <g
         id="g3852"
         style="fill:#ffffff;fill-opacity:1;stroke:#ffffff;stroke-width:39.37009811;stroke-linecap:round;stroke-linejoin:round;stroke-opacity:1" />
      <g
         id="g3854"
         style="fill:#ffffff;fill-opacity:1;stroke:#ffffff;stroke-width:0;stroke-linecap:round;stroke-linejoin:round;stroke-opacity:1">
        <circle
           id="circle3856"
           r="157.48"
           cy="3179.1299"
           cx="3995.1201"
           sodipodi:cx="3995.1201"
           sodipodi:cy="3179.1299"
           sodipodi:rx="157.48"
           sodipodi:ry="157.48"
           d="m 4152.6001,3179.1299 c 0,86.9738 -70.5062,157.48 -157.48,157.48 -86.9738,0 -157.48,-70.5062 -157.48,-157.48 0,-86.9738 70.5062,-157.48 157.48,-157.48 86.9738,0 157.48,70.5062 157.48,157.48 z" />
      </g>
      <g
         id="g3858"
         style="fill:#ffffff;fill-opacity:1;stroke:#ffffff;stroke-width:39.37009811;stroke-linecap:round;stroke-linejoin:round;stroke-opacity:1" />
      <g
         id="g3860"
         style="fill:#000000;fill-opacity:1;stroke:#000000;stroke-width:39.37009811;stroke-linecap:round;stroke-linejoin:round;stroke-opacity:1" />
    </g>
    <path
       sodipodi:type="arc"
       style="fill:#000000;fill-opacity:1;stroke:#000000;stroke-width:3.54330707;stroke-linecap:round;stroke-linejoin:round;stroke-miterlimit:4;stroke-opacity:1;stroke-dasharray:none"
       id="path3975"
       sodipodi:cx="101.96429"
       sodipodi:cy="61.469322"
       sodipodi:rx="0.98214287"
       sodipodi:ry="1.1607144"
       d="m 102.94643,61.469322 a 0.98214287,1.1607144 0 1 1 -1.96429,0 0.98214287,1.1607144 0 1 1 1.96429,0 z"
       transform="translate(-3.7377606,80.476087)" />
    <path
       transform="translate(-4.1841906,93.243945)"
       sodipodi:type="arc"
       style="fill:#000000;fill-opacity:1;stroke:#000000;stroke-width:3.54330707;stroke-linecap:round;stroke-linejoin:round;stroke-miterlimit:4;stroke-opacity:1;stroke-dasharray:none"
       id="path3975-1"
       sodipodi:cx="101.96429"
       sodipodi:cy="61.469322"
       sodipodi:rx="0.98214287"
       sodipodi:ry="1.1607144"
       d="m 102.94643,61.469322 a 0.98214287,1.1607144 0 1 1 -1.96429,0 0.98214287,1.1607144 0 1 1 1.96429,0 z" />
    <path
       transform="translate(180.99439,80.029659)"
       sodipodi:type="arc"
       style="fill:#000000;fill-opacity:1;stroke:#000000;stroke-width:3.54330707;stroke-linecap:round;stroke-linejoin:round;stroke-miterlimit:4;stroke-opacity:1;stroke-dasharray:none"
       id="path3975-7"
       sodipodi:cx="101.96429"
       sodipodi:cy="61.469322"
       sodipodi:rx="0.98214287"
       sodipodi:ry="1.1607144"
       d="m 102.94643,61.469322 a 0.98214287,1.1607144 0 1 1 -1.96429,0 0.98214287,1.1607144 0 1 1 1.96429,0 z" />
    <path
       transform="translate(180.9051,92.529659)"
       sodipodi:type="arc"
       style="fill:#000000;fill-opacity:1;stroke:#000000;stroke-width:3.54330707;stroke-linecap:round;stroke-linejoin:round;stroke-miterlimit:4;stroke-opacity:1;stroke-dasharray:none"
       id="path3975-4"
       sodipodi:cx="101.96429"
       sodipodi:cy="61.469322"
       sodipodi:rx="0.98214287"
       sodipodi:ry="1.1607144"
       d="m 102.94643,61.469322 a 0.98214287,1.1607144 0 1 1 -1.96429,0 0.98214287,1.1607144 0 1 1 1.96429,0 z" />
  </g>
</svg>
