G04 #@! TF.FileFunction,Soldermask,Bot*
%FSLAX46Y46*%
G04 Gerber Fmt 4.6, Leading zero omitted, Abs format (unit mm)*
G04 Created by KiCad (PCBNEW 4.0.0-stable) date 12/28/2015 10:04:24 AM*
%MOMM*%
G01*
G04 APERTURE LIST*
%ADD10C,0.100000*%
%ADD11O,1.600000X1.900000*%
%ADD12C,4.700000*%
%ADD13C,0.254000*%
G04 APERTURE END LIST*
D10*
D11*
X1900000Y0D03*
X3500000Y0D03*
X5100000Y0D03*
D12*
X3500000Y-13000000D03*
D13*
G36*
X1973000Y-5873000D02*
X1227000Y-5873000D01*
X1227000Y-4627000D01*
X1973000Y-4627000D01*
X1973000Y-5873000D01*
X1973000Y-5873000D01*
G37*
X1973000Y-5873000D02*
X1227000Y-5873000D01*
X1227000Y-4627000D01*
X1973000Y-4627000D01*
X1973000Y-5873000D01*
G36*
X1973000Y-2873000D02*
X1227000Y-2873000D01*
X1227000Y-1627000D01*
X1973000Y-1627000D01*
X1973000Y-2873000D01*
X1973000Y-2873000D01*
G37*
X1973000Y-2873000D02*
X1227000Y-2873000D01*
X1227000Y-1627000D01*
X1973000Y-1627000D01*
X1973000Y-2873000D01*
G36*
X5773000Y-2873000D02*
X5027000Y-2873000D01*
X5027000Y-1627000D01*
X5773000Y-1627000D01*
X5773000Y-2873000D01*
X5773000Y-2873000D01*
G37*
X5773000Y-2873000D02*
X5027000Y-2873000D01*
X5027000Y-1627000D01*
X5773000Y-1627000D01*
X5773000Y-2873000D01*
G36*
X5773000Y-5873000D02*
X5027000Y-5873000D01*
X5027000Y-4627000D01*
X5773000Y-4627000D01*
X5773000Y-5873000D01*
X5773000Y-5873000D01*
G37*
X5773000Y-5873000D02*
X5027000Y-5873000D01*
X5027000Y-4627000D01*
X5773000Y-4627000D01*
X5773000Y-5873000D01*
M02*
